<svg version="1.1" xmlns="http://www.w3.org/2000/svg" viewBox="0 0 442.49690028482115 452.79998779296875" width="442.49690028482115" height="452.79998779296875">
  <!-- svg-source:excalidraw -->
  
  <defs>
    <style class="style-fonts">
      @font-face {
        font-family: "Virgil";
        src: url("https://excalidraw.com/Virgil.woff2");
      }
      @font-face {
        font-family: "Cascadia";
        src: url("https://excalidraw.com/Cascadia.woff2");
      }
      @font-face {
        font-family: "Assistant";
        src: url("https://excalidraw.com/Assistant-Regular.woff2");
      }
    </style>
    
  </defs>
  <rect x="0" y="0" width="442.49690028482115" height="452.79998779296875" fill="#ffffff"></rect><g stroke-linecap="round" transform="translate(11.696881974274277 10) rotate(0 210.40000915527344 216.39999389648438)"><path d="M32 0 C133.57 0, 234.98 1.53, 388.8 0 M32 0 C111.72 0.4, 191.06 0.19, 388.8 0 M388.8 0 C411.6 -0.01, 420.94 10.82, 420.8 32 M388.8 0 C408.79 -0.02, 419.6 12.8, 420.8 32 M420.8 32 C420.98 131.13, 423.28 230.39, 420.8 400.8 M420.8 32 C419.03 178.74, 418.41 325.25, 420.8 400.8 M420.8 400.8 C421.21 424.04, 409.1 434.6, 388.8 432.8 M420.8 400.8 C419.2 420.02, 411.71 434.56, 388.8 432.8 M388.8 432.8 C316.04 432.55, 241.9 432.51, 32 432.8 M388.8 432.8 C272.52 433.07, 155.38 432.09, 32 432.8 M32 432.8 C10.71 431.6, -1.62 423.72, 0 400.8 M32 432.8 C10.15 432.63, -0.71 423.51, 0 400.8 M0 400.8 C-0.23 255.64, 1.04 110.28, 0 32 M0 400.8 C-0.58 262.59, -0.3 124.91, 0 32 M0 32 C-0.05 10.69, 10.34 1.42, 32 0 M0 32 C1.25 12.02, 9.41 0.92, 32 0" stroke="#1e1e1e" stroke-width="2" fill="none"></path></g><g stroke-linecap="round" transform="translate(46.89689418130553 91.60003662109375) rotate(0 180.8000030517578 58)"><path d="M29 0 C143.86 -1.98, 259.37 -4.56, 332.6 0 C355.37 -0.77, 360.56 9.14, 361.6 29 C364.88 52.88, 358.43 73.46, 361.6 87 C359.08 106.77, 352.15 117.56, 332.6 116 C243.87 118.18, 158.32 122.09, 29 116 C9.07 118.81, -1.64 106.3, 0 87 C-2.99 70.94, 1.75 56.17, 0 29 C-2.09 6.34, 6.88 -3.42, 29 0" stroke="none" stroke-width="0" fill="#a5d8ff"></path><path d="M29 0 C119.54 -0.8, 208.72 -2.43, 332.6 0 M29 0 C143.3 0.25, 258.15 0.36, 332.6 0 M332.6 0 C350.18 1.42, 361.87 10.27, 361.6 29 M332.6 0 C352.59 -1.49, 360.9 11.48, 361.6 29 M361.6 29 C360.9 40.89, 360.96 51.83, 361.6 87 M361.6 29 C362.67 41.76, 361.21 55.62, 361.6 87 M361.6 87 C360.54 107.4, 353.32 117.69, 332.6 116 M361.6 87 C362.98 104.35, 353.7 118.22, 332.6 116 M332.6 116 C218.25 114.92, 105.79 116.27, 29 116 M332.6 116 C235.49 115.08, 137.53 114.33, 29 116 M29 116 C11.55 116.56, 0.34 107.01, 0 87 M29 116 C9.35 117.57, -1.15 106.5, 0 87 M0 87 C-1.69 69.25, -0.29 53.57, 0 29 M0 87 C0.44 72.21, 0.42 57.22, 0 29 M0 29 C0.92 11.05, 9.97 0.38, 29 0 M0 29 C-1.99 10.29, 7.88 -1.27, 29 0" stroke="#1e1e1e" stroke-width="2" fill="none"></path></g><g transform="translate(192.0169045572821 124.60003662109375) rotate(0 35.67999267578125 25)"><text x="35.67999267578125" y="17.52" font-family="Virgil, Segoe UI Emoji" font-size="20px" fill="#1e1e1e" text-anchor="middle" style="white-space: pre;" direction="ltr" dominant-baseline="alphabetic">1번</text><text x="35.67999267578125" y="42.519999999999996" font-family="Virgil, Segoe UI Emoji" font-size="20px" fill="#1e1e1e" text-anchor="middle" style="white-space: pre;" direction="ltr" dominant-baseline="alphabetic">컴포넌트</text></g><g stroke-linecap="round" transform="translate(46.29685756021178 226.40005493164062) rotate(0 176.79998779296875 86.79997253417969)"><path d="M32 0 C89.98 -2.22, 152.45 -2.56, 321.6 0 C346.04 0.51, 353.69 9.7, 353.6 32 C353.07 56.78, 354.78 85.22, 353.6 141.6 C350.48 164.05, 343.9 176.15, 321.6 173.6 C237.15 177.42, 150.56 175.31, 32 173.6 C7.3 175.65, -0.76 163.58, 0 141.6 C-1.8 96.61, -0.94 52.32, 0 32 C1.05 11.04, 12.57 -1.36, 32 0" stroke="none" stroke-width="0" fill="#ffec99"></path><path d="M32 0 C133.54 -1.1, 238.39 -2.86, 321.6 0 M32 0 C102.37 1.61, 171.17 1.11, 321.6 0 M321.6 0 C342.45 1.5, 352.83 9.35, 353.6 32 M321.6 0 C343.65 0.19, 354.75 9.52, 353.6 32 M353.6 32 C353.8 60.52, 353.77 86.99, 353.6 141.6 M353.6 32 C352.87 64.92, 352.46 99.11, 353.6 141.6 M353.6 141.6 C353.96 164.19, 341.95 172.9, 321.6 173.6 M353.6 141.6 C353.85 163.89, 343.51 171.81, 321.6 173.6 M321.6 173.6 C219.11 172.04, 114.68 171.94, 32 173.6 M321.6 173.6 C223.39 175.28, 124.51 174.87, 32 173.6 M32 173.6 C11.97 174.5, 0.9 161.85, 0 141.6 M32 173.6 C12.34 172.4, -0.08 160.69, 0 141.6 M0 141.6 C-1.6 99.44, -0.03 59.97, 0 32 M0 141.6 C-1 107.11, -1.26 74.16, 0 32 M0 32 C1.14 9.92, 9.67 1.31, 32 0 M0 32 C-2.04 11.71, 12.14 0.43, 32 0" stroke="#1e1e1e" stroke-width="2" fill="none"></path></g><g transform="translate(43.69688197427428 27.600006103515625) rotate(0 32.78558349609375 8.266127481668676)"><text x="0" y="11.585804278306819" font-family="Virgil, Segoe UI Emoji" font-size="13.225803970669883px" fill="#1e1e1e" text-anchor="start" style="white-space: pre;" direction="ltr" dominant-baseline="alphabetic">유토 블로그</text></g><g stroke-linecap="round"><g transform="translate(11.696881974274277 55.600006103515625) rotate(0 209.1999969482422 0)"><path d="M-0.16 1.09 C69.63 1, 349.36 0.14, 419.18 0.05 M-1.7 0.61 C67.95 0.69, 348.67 1.97, 418.64 1.61" stroke="#1e1e1e" stroke-width="1" fill="none"></path></g></g><mask></mask><g transform="translate(184.49686976724303 278.0001220703125) rotate(0 35.67999267578125 25)"><text x="35.67999267578125" y="17.52" font-family="Virgil, Segoe UI Emoji" font-size="20px" fill="#1e1e1e" text-anchor="middle" style="white-space: pre;" direction="ltr" dominant-baseline="alphabetic">2번</text><text x="35.67999267578125" y="42.519999999999996" font-family="Virgil, Segoe UI Emoji" font-size="20px" fill="#1e1e1e" text-anchor="middle" style="white-space: pre;" direction="ltr" dominant-baseline="alphabetic">컴포넌트</text></g><g transform="translate(182.79067775064146 180.49996948242188) rotate(0 42.10621643066406 7.613534073118757)"><text x="42.10621643066406" y="10.671129356883245" font-family="Virgil, Segoe UI Emoji" font-size="12.181654516990006px" fill="#1e1e1e" text-anchor="middle" style="white-space: pre;" direction="ltr" dominant-baseline="alphabetic">로드 시간 : 2초</text></g><g transform="translate(183.2291848307196 337.58644761633434) rotate(0 41.66773986816406 7.613534073118728)"><text x="41.66773986816406" y="10.671129356883245" font-family="Virgil, Segoe UI Emoji" font-size="12.181654516990006px" fill="#1e1e1e" text-anchor="middle" style="white-space: pre;" direction="ltr" dominant-baseline="alphabetic">로드 시간 : 4초</text></g></svg>