<?xml version="1.0" encoding="utf-8"?>
<!-- Generator: Adobe Illustrator 28.3.0, SVG Export Plug-In . SVG Version: 6.00 Build 0)  -->
<svg version="1.1" id="_레이어_2" xmlns="http://www.w3.org/2000/svg" xmlns:xlink="http://www.w3.org/1999/xlink" x="0px"
	 y="0px" viewBox="0 0 108.8 33.4" style="enable-background:new 0 0 108.8 33.4;" xml:space="preserve">
<style type="text/css">
	.st0{fill:none;stroke:#7885EC;stroke-width:4;stroke-linecap:round;stroke-linejoin:round;}
	.st1{fill:none;stroke:#7885EC;stroke-width:2;stroke-linecap:round;stroke-linejoin:round;}
	.st2{fill:#7885EC;}
</style>
<g id="_레이어_1-2">
	<g>
		<path class="st0" d="M11.9,31.4l1.9-26.7c0-2.4,2.7-3.6,4.3-1.9l4.7,5c0.5,0.5,1.1,0.8,1.8,0.8H39c0.7,0,1.3-0.3,1.8-0.8l4.7-5
			c1.6-1.7,4.3-0.5,4.3,1.9l2.4,26.7"/>
		<circle class="st1" cx="25" cy="20.1" r="2"/>
		<circle class="st1" cx="38.5" cy="20.1" r="2"/>
		<path class="st2" d="M58,6.8c0.7,0,1.4,0.4,1.8,1l3.2,6h0.1l3.2-6c0.3-0.6,1-1,1.8-1l0,0c1.5,0,2.4,1.6,1.7,2.8l-4.4,7.8
			C65.1,17.7,65,18,65,18.4v3.3c0,1.1-0.9,1.9-2,1.9h-0.1c-1.1,0-2-0.9-2-1.9v-3.3c0-0.3-0.1-0.6-0.2-0.9l-4.5-7.8
			C55.5,8.3,56.5,6.8,58,6.8L58,6.8L58,6.8z"/>
		<path class="st2" d="M81,12.4c1.1,0,2,0.9,2,2v8.8c0,3.8-2.9,6.2-7.1,6.2c-4.3,0-7.1-2.4-7.1-6.2v-8.8c0-1.1,0.9-2,2-2l0,0
			c1.1,0,2,0.9,2,2v8.5c0,1.8,1.3,3.1,3.2,3.1s3.1-1.3,3.1-3.1v-8.5C79,13.3,79.9,12.4,81,12.4C81,12.4,81,12.4,81,12.4z"/>
		<path class="st2" d="M82.4,6.8h11.2c0.9,0,1.7,0.7,1.7,1.6l0,0c0,0.9-0.7,1.6-1.7,1.6h-1.9c-0.9,0-1.7,0.7-1.7,1.6v10.3
			c0,0.9-0.7,1.6-1.7,1.6h-0.7c-0.9,0-1.7-0.7-1.7-1.6V11.6c0-0.9-0.7-1.6-1.7-1.6h-1.9c-0.9,0-1.7-0.7-1.7-1.6l0,0
			C80.7,7.5,81.5,6.8,82.4,6.8L82.4,6.8z"/>
		<path class="st2" d="M100.8,29.5c-4.6,0-8-3.1-8-8.6s3.5-8.6,8-8.6s8,3.1,8,8.6C108.8,26.4,105.3,29.5,100.8,29.5z M100.8,26.1
			c2.5,0,4-1.8,4-5.1c0-3.3-1.5-5.2-4-5.1c-2.5,0-4,1.8-4,5.1S98.3,26.1,100.8,26.1z"/>
		<line class="st0" x1="12.5" y1="23.3" x2="2" y2="23.3"/>
		<line class="st0" x1="6.8" y1="28.8" x2="12.1" y2="28.8"/>
	</g>
</g>
</svg>
