<svg version="1.1" xmlns="http://www.w3.org/2000/svg" viewBox="0 0 1720.5260464577532 620.115959445793" width="1720.5260464577532" height="620.115959445793">
  <!-- svg-source:excalidraw -->
  
  <defs>
    <style class="style-fonts">
      @font-face {
        font-family: "Virgil";
        src: url("https://excalidraw.com/Virgil.woff2");
      }
      @font-face {
        font-family: "Cascadia";
        src: url("https://excalidraw.com/Cascadia.woff2");
      }
      @font-face {
        font-family: "Assistant";
        src: url("https://excalidraw.com/Assistant-Regular.woff2");
      }
    </style>
    
  </defs>
  <rect x="0" y="0" width="1720.5260464577532" height="620.115959445793" fill="#ffffff"></rect><g stroke-linecap="round" transform="translate(910.734558105469 15.833244323730469) rotate(0 132.66667683919258 126.66666666666669)"><path d="M32 0 C104.34 -3.6, 171.01 -0.9, 233.33 0 C256.59 2.79, 263.96 11.66, 265.33 32 C270.21 103.35, 267.39 178.13, 265.33 221.33 C261.93 239.81, 253.1 254.25, 233.33 253.33 C165.57 249.95, 91.34 251.81, 32 253.33 C8.55 254.79, 0.92 245.31, 0 221.33 C-4.43 154.55, -2.4 78.12, 0 32 C2.26 12.81, 9.2 1.22, 32 0" stroke="none" stroke-width="0" fill="#a5d8ff"></path><path d="M32 0 C87.3 -0.06, 141.9 -1.77, 233.33 0 M32 0 C105.25 -1.62, 179.84 -0.93, 233.33 0 M233.33 0 C254.24 0.07, 266.67 11.29, 265.33 32 M233.33 0 C256.17 2.26, 265.4 8.44, 265.33 32 M265.33 32 C265.14 86.13, 264.5 140.03, 265.33 221.33 M265.33 32 C266.97 101.11, 266.45 171.34, 265.33 221.33 M265.33 221.33 C265.46 241.8, 256.37 252.24, 233.33 253.33 M265.33 221.33 C264.92 243.95, 253.6 252.86, 233.33 253.33 M233.33 253.33 C169.91 256.1, 107.04 254.07, 32 253.33 M233.33 253.33 C175.24 254.13, 114.79 254.18, 32 253.33 M32 253.33 C10.48 251.81, -1.32 241.79, 0 221.33 M32 253.33 C12.01 253.62, 1.75 242.55, 0 221.33 M0 221.33 C0.42 155.87, -2.43 90.18, 0 32 M0 221.33 C-0.18 171.51, -1.4 123.92, 0 32 M0 32 C0.59 11.14, 10.02 1.71, 32 0 M0 32 C-1.98 11.36, 9.87 2.23, 32 0" stroke="#1e1e1e" stroke-width="1" fill="none"></path></g><g stroke-linecap="round" transform="translate(954.4012959798177 64.8331832885741) rotate(0 87.33334859212232 87.3333740234375)"><path d="M32 0 C76.77 0.11, 115.27 -1.1, 142.67 0 C166.56 0.55, 177.42 10.62, 174.67 32 C171.31 71.63, 171.7 107.68, 174.67 142.67 C174.05 163.23, 161.99 177.8, 142.67 174.67 C106.72 172.95, 73.98 177.31, 32 174.67 C12.07 177.88, 2.57 167.47, 0 142.67 C1.18 103.55, 1.92 67.6, 0 32 C-3.46 8.53, 7.77 -0.05, 32 0" stroke="none" stroke-width="0" fill="#ffec99"></path><path d="M32 0 C66.17 -0.23, 96.92 -1.52, 142.67 0 M32 0 C67.84 1.48, 101.82 -0.02, 142.67 0 M142.67 0 C164.99 -1.6, 176.08 12.2, 174.67 32 M142.67 0 C162.03 -1.39, 176.08 10.87, 174.67 32 M174.67 32 C175.6 58.09, 172.4 78.87, 174.67 142.67 M174.67 32 C174.94 72.71, 173.61 113.8, 174.67 142.67 M174.67 142.67 C174.21 164.31, 162.63 173.13, 142.67 174.67 M174.67 142.67 C173.93 166.05, 165.68 174.99, 142.67 174.67 M142.67 174.67 C108.12 175.5, 70.36 177.56, 32 174.67 M142.67 174.67 C111.65 175.05, 81 173.9, 32 174.67 M32 174.67 C9.6 175.6, 1.18 164.47, 0 142.67 M32 174.67 C9.99 175.98, -0.18 163.43, 0 142.67 M0 142.67 C-0.28 111.56, -0.55 76.37, 0 32 M0 142.67 C-0.36 109.56, 0.28 76.69, 0 32 M0 32 C-1.85 10.29, 9.03 -0.03, 32 0 M0 32 C0.93 11.24, 11.44 1.06, 32 0" stroke="#1e1e1e" stroke-width="1" fill="none"></path></g><g stroke-linecap="round" transform="translate(1043.734537760417 155.4998652140299) rotate(0 132.66667683919263 126.66666666666663)"><path d="M32 0 C97.91 -2.29, 161.17 1.57, 233.33 0 C251.19 -1.21, 266.56 11.37, 265.33 32 C261.84 77.44, 261.78 125.55, 265.33 221.33 C267.28 240.99, 258.2 253.18, 233.33 253.33 C185.72 257.29, 131.92 258.07, 32 253.33 C11.25 250.8, -3.03 241.4, 0 221.33 C0.94 154.03, 2.68 86.7, 0 32 C2.26 7.43, 11.94 0.2, 32 0" stroke="none" stroke-width="0" fill="#ffc9c9"></path><path d="M32 0 C91.54 1.58, 155.27 -1.15, 233.33 0 M32 0 C72.2 -0.42, 113.38 0.69, 233.33 0 M233.33 0 C254.91 1.52, 265.24 11.53, 265.33 32 M233.33 0 C255.29 0.24, 266.41 10.12, 265.33 32 M265.33 32 C265.43 70.24, 266.16 107.97, 265.33 221.33 M265.33 32 C267.35 83.6, 267.96 134.98, 265.33 221.33 M265.33 221.33 C265.93 241.98, 256.6 254.29, 233.33 253.33 M265.33 221.33 C265.54 244.16, 256.3 252.28, 233.33 253.33 M233.33 253.33 C181.03 253.61, 126.45 255.92, 32 253.33 M233.33 253.33 C154.78 254.07, 77.09 253.45, 32 253.33 M32 253.33 C9.08 252.46, 0.51 243.66, 0 221.33 M32 253.33 C8.71 252.67, 1.9 240.92, 0 221.33 M0 221.33 C1.16 171.62, 1.82 122.25, 0 32 M0 221.33 C-0.14 148.82, -1.97 76.67, 0 32 M0 32 C1.19 9.85, 11.34 0.99, 32 0 M0 32 C0.36 9.03, 10.87 2.2, 32 0" stroke="#1e1e1e" stroke-width="1" fill="none"></path></g><g stroke-linecap="round"><g transform="translate(1113.4012349446616 105.1665369669596) rotate(0 113.33335876464844 0)"><path d="M-0.02 -1.08 C37.62 -0.93, 189.24 0.19, 226.85 0.55 M-1.49 0.97 C35.92 0.79, 187.75 -1, 226 -1.28" stroke="#1e1e1e" stroke-width="1" fill="none"></path></g></g><mask></mask><g transform="translate(1351.8679656982422 87.16645558675134) rotate(0 99.1799868773669 19.000015258789062)"><text x="99.17998687736693" y="26.630421386718755" font-family="Virgil, Segoe UI Emoji" font-size="30.400024414062504px" fill="#1e1e1e" text-anchor="middle" style="white-space: pre;" direction="ltr" dominant-baseline="alphabetic">z-index: 9999</text></g><g stroke-linecap="round"><g transform="translate(1173.886224125254 45.98407150831713) rotate(0 113.33335876464844 0)"><path d="M1.07 -1.07 C38.54 -0.95, 188.39 0.23, 225.82 0.46 M0.17 0.98 C37.93 0.76, 190.12 -1.55, 228.09 -1.42" stroke="#1e1e1e" stroke-width="1" fill="none"></path></g></g><mask></mask><g transform="translate(1418.0460179646811 24.833208719889512) rotate(0 66.27196502685547 19.000015258789062)"><text x="66.27196502685547" y="26.630421386718755" font-family="Virgil, Segoe UI Emoji" font-size="30.400024414062504px" fill="#1e1e1e" text-anchor="middle" style="white-space: pre;" direction="ltr" dominant-baseline="alphabetic">z-index: 1</text></g><g stroke-linecap="round"><g transform="translate(1311.149767974755 262.3332595825194) rotate(0 113.33335876464844 0)"><path d="M0.46 -0.46 C38.32 -0.41, 188.56 -0.21, 226.42 -0.03 M-0.76 -1.75 C36.99 -1.46, 187.33 1.43, 225.34 1.48" stroke="#1e1e1e" stroke-width="1" fill="none"></path></g></g><mask></mask><g transform="translate(1557.0669247536516 240.33316294352232) rotate(0 76.72956085205078 19.000015258789062)"><text x="76.72956085205078" y="26.630421386718755" font-family="Virgil, Segoe UI Emoji" font-size="30.400024414062504px" fill="#1e1e1e" text-anchor="middle" style="white-space: pre;" direction="ltr" dominant-baseline="alphabetic">z-index: 10</text></g><g transform="translate(927.2419713338215 29.833132425944086) rotate(0 50.57597732543945 16.01723066053887)"><text x="50.57597732543946" y="22.449750493811266" font-family="Virgil, Segoe UI Emoji" font-size="25.627569056862175px" fill="#1e1e1e" text-anchor="middle" style="white-space: pre;" direction="ltr" dominant-baseline="alphabetic">요소 1번 </text></g><g transform="translate(982.235371907552 100.81590939479963) rotate(0 55.582557678222656 16.01723066053887)"><text x="55.582557678222656" y="22.449750493811266" font-family="Virgil, Segoe UI Emoji" font-size="25.627569056862175px" fill="#1e1e1e" text-anchor="middle" style="white-space: pre;" direction="ltr" dominant-baseline="alphabetic">요소1 자식</text></g><g transform="translate(1138.5941975911455 268.8159017654051) rotate(0 31.97374725341797 16.01723066053887)"><text x="31.97374725341797" y="22.449750493811266" font-family="Virgil, Segoe UI Emoji" font-size="25.627569056862175px" fill="#1e1e1e" text-anchor="middle" style="white-space: pre;" direction="ltr" dominant-baseline="alphabetic">요소2</text></g><g stroke-linecap="round" transform="translate(59.588712204066155 10) rotate(0 132.66667683919263 126.66666666666669)"><path d="M32 0 C87.03 0.15, 143.69 2.58, 233.33 0 C253.39 -1.21, 262.43 12.4, 265.33 32 C264.02 81.5, 264.61 128.38, 265.33 221.33 C267.94 245.11, 252.07 251.75, 233.33 253.33 C174.67 254.61, 110.05 251.62, 32 253.33 C13.76 251.53, -0.4 243.33, 0 221.33 C1.11 163.66, 4.25 103.65, 0 32 C1.59 7.16, 12.31 -1.4, 32 0" stroke="none" stroke-width="0" fill="#a5d8ff"></path><path d="M32 0 C97.94 -1.33, 167.53 1.48, 233.33 0 M32 0 C95.37 -0.51, 159.05 -0.88, 233.33 0 M233.33 0 C254.54 0.36, 264.45 11.26, 265.33 32 M233.33 0 C253.64 1.74, 266.09 12.84, 265.33 32 M265.33 32 C268.49 101.01, 266.06 172.59, 265.33 221.33 M265.33 32 C265.2 76.98, 264.76 122.58, 265.33 221.33 M265.33 221.33 C266.61 240.83, 256.21 253.34, 233.33 253.33 M265.33 221.33 C265.18 242.72, 254.76 255.01, 233.33 253.33 M233.33 253.33 C188.8 255.87, 141.58 255.4, 32 253.33 M233.33 253.33 C178.16 254.83, 121.71 254.59, 32 253.33 M32 253.33 C10.45 252.85, 1.52 242.67, 0 221.33 M32 253.33 C11.3 254.2, -1.98 242.4, 0 221.33 M0 221.33 C-0.13 179.3, -1.86 138.45, 0 32 M0 221.33 C1.66 146.52, 1.19 72.78, 0 32 M0 32 C0.76 10.85, 11.15 -1.56, 32 0 M0 32 C0.96 11.11, 12.24 -0.81, 32 0" stroke="#1e1e1e" stroke-width="1" fill="none"></path></g><g stroke-linecap="round" transform="translate(192.58869185901415 149.66662089029967) rotate(0 132.66667683919263 126.66666666666663)"><path d="M32 0 C86.44 -2.76, 140.57 -0.12, 233.33 0 C252.71 -2.38, 266.21 11.6, 265.33 32 C269.38 106.98, 264.18 175.49, 265.33 221.33 C265.27 244.19, 254.71 254.87, 233.33 253.33 C168.03 249.95, 96.82 252.16, 32 253.33 C11.38 250.26, 0.14 240.86, 0 221.33 C0.32 145.95, 0.38 76.18, 0 32 C2.82 11.66, 10.37 -1.59, 32 0" stroke="none" stroke-width="0" fill="#ffc9c9"></path><path d="M32 0 C75.17 0.19, 118.45 -1.46, 233.33 0 M32 0 C95.7 0.6, 159.11 0.71, 233.33 0 M233.33 0 C253.77 1.51, 265.99 12.55, 265.33 32 M233.33 0 C256.26 2.25, 263.89 12.18, 265.33 32 M265.33 32 C263.11 79.28, 262.8 129.92, 265.33 221.33 M265.33 32 C266.57 73.13, 266.7 116.11, 265.33 221.33 M265.33 221.33 C265.2 242.71, 254.75 254.79, 233.33 253.33 M265.33 221.33 C263.61 242.87, 255.76 254.29, 233.33 253.33 M233.33 253.33 C153.66 254.69, 76.36 255.36, 32 253.33 M233.33 253.33 C173.48 252.57, 114.5 252.79, 32 253.33 M32 253.33 C11.22 254.08, -1.72 242.43, 0 221.33 M32 253.33 C8.69 254.64, 1.54 243.75, 0 221.33 M0 221.33 C2.59 177.9, 1.29 137.88, 0 32 M0 221.33 C-0.47 176.02, -0.61 129.74, 0 32 M0 32 C0.83 11.05, 12.03 -0.7, 32 0 M0 32 C-0.61 12.78, 10.01 0, 32 0" stroke="#1e1e1e" stroke-width="1" fill="none"></path></g><g stroke-linecap="round" transform="translate(103.25545007841504 58.99993896484375) rotate(0 87.33334859212232 87.33337402343756)"><path d="M32 0 C63.88 2.32, 90.84 -0.73, 142.67 0 C161.09 1.73, 172.71 8.29, 174.67 32 C176.71 71.26, 177.78 106.23, 174.67 142.67 C172.07 162.42, 163.94 176.19, 142.67 174.67 C105.76 173.47, 79.08 173.62, 32 174.67 C10.27 175.33, 0.71 160.93, 0 142.67 C2.34 112.44, 2.58 71.89, 0 32 C1.64 9.27, 13.48 0.99, 32 0" stroke="none" stroke-width="0" fill="#ffec99"></path><path d="M32 0 C64.18 2.36, 95.86 2.57, 142.67 0 M32 0 C69.38 -0.43, 106.45 -0.01, 142.67 0 M142.67 0 C163.12 0.6, 173.77 12.18, 174.67 32 M142.67 0 C164.75 2.17, 176.26 12.91, 174.67 32 M174.67 32 C174.28 59.01, 174.23 83.59, 174.67 142.67 M174.67 32 C175.81 56.1, 176.13 81.15, 174.67 142.67 M174.67 142.67 C176.21 164.01, 163.87 174.71, 142.67 174.67 M174.67 142.67 C174.76 165.67, 162.27 174.87, 142.67 174.67 M142.67 174.67 C102.88 177.04, 65.25 175.86, 32 174.67 M142.67 174.67 C99.62 174.33, 57.46 174.39, 32 174.67 M32 174.67 C12.19 174.67, 0.55 164.75, 0 142.67 M32 174.67 C8.69 174.4, -1.98 165.3, 0 142.67 M0 142.67 C-1.31 100.27, 1.32 60.71, 0 32 M0 142.67 C-0.58 106.32, -0.65 70.31, 0 32 M0 32 C0.48 9.11, 11.5 0.38, 32 0 M0 32 C1.57 9.86, 10.05 2.12, 32 0" stroke="#1e1e1e" stroke-width="1" fill="none"></path></g><g stroke-linecap="round"><g transform="translate(262.2553890432588 99.33329264322936) rotate(0 113.33335876464844 0)"><path d="M0.97 0.44 C38.58 0.44, 188.89 0.32, 226.53 0.2 M0.01 -0.38 C37.39 -0.78, 187.83 -2.03, 225.52 -1.82" stroke="#1e1e1e" stroke-width="1" fill="none"></path></g></g><mask></mask><g transform="translate(500.7221197968396 81.33321126302087) rotate(0 99.1799868773669 19.000015258789062)"><text x="99.17998687736693" y="26.630421386718755" font-family="Virgil, Segoe UI Emoji" font-size="30.400024414062504px" fill="#1e1e1e" text-anchor="middle" style="white-space: pre;" direction="ltr" dominant-baseline="alphabetic">z-index: 9999</text></g><g stroke-linecap="round"><g transform="translate(322.7403782238513 40.15082718458689) rotate(0 113.33335876464844 0)"><path d="M0.15 -0.29 C37.93 -0.29, 188.92 0.11, 226.59 0.21 M-1.24 -1.49 C36.4 -1.9, 187.88 -1.75, 225.6 -1.8" stroke="#1e1e1e" stroke-width="1" fill="none"></path></g></g><mask></mask><g transform="translate(566.9001720632785 18.999964396159157) rotate(0 66.27196502685547 19.000015258789062)"><text x="66.27196502685547" y="26.630421386718755" font-family="Virgil, Segoe UI Emoji" font-size="30.400024414062504px" fill="#1e1e1e" text-anchor="middle" style="white-space: pre;" direction="ltr" dominant-baseline="alphabetic">z-index: 1</text></g><g stroke-linecap="round"><g transform="translate(460.0039220733521 256.50001525878895) rotate(0 113.33335876464844 0)"><path d="M-0.53 0.36 C37.17 0.47, 188.2 0.78, 226.13 0.91 M1.39 -0.5 C38.9 -0.73, 187.38 -0.72, 224.9 -0.74" stroke="#1e1e1e" stroke-width="1" fill="none"></path></g></g><mask></mask><g transform="translate(705.9210788522491 234.49991861979186) rotate(0 76.72956085205078 19.000015258789062)"><text x="76.72956085205078" y="26.630421386718755" font-family="Virgil, Segoe UI Emoji" font-size="30.400024414062504px" fill="#1e1e1e" text-anchor="middle" style="white-space: pre;" direction="ltr" dominant-baseline="alphabetic">z-index: 10</text></g><g transform="translate(76.09612543241872 23.999888102213845) rotate(0 50.57597732543946 16.01723066053887)"><text x="50.57597732543946" y="22.449750493811266" font-family="Virgil, Segoe UI Emoji" font-size="25.627569056862175px" fill="#1e1e1e" text-anchor="middle" style="white-space: pre;" direction="ltr" dominant-baseline="alphabetic">요소 1번 </text></g><g transform="translate(131.08952600614919 94.98266507106916) rotate(0 55.582557678222656 16.01723066053887)"><text x="55.582557678222656" y="22.449750493811266" font-family="Virgil, Segoe UI Emoji" font-size="25.627569056862175px" fill="#1e1e1e" text-anchor="middle" style="white-space: pre;" direction="ltr" dominant-baseline="alphabetic">요소1 자식</text></g><g transform="translate(287.44835168974294 262.98265744167463) rotate(0 31.97374725341797 16.01723066053887)"><text x="31.97374725341797" y="22.449750493811266" font-family="Virgil, Segoe UI Emoji" font-size="25.627569056862175px" fill="#1e1e1e" text-anchor="middle" style="white-space: pre;" direction="ltr" dominant-baseline="alphabetic">요소2</text></g><g transform="translate(142.79115804036485 487.1666336059567) rotate(0 243.88249853509524 29.256558939213164)"><text x="243.88249853509524" y="41.00599300920124" font-family="Virgil, Segoe UI Emoji" font-size="46.81049430274114px" fill="#1e1e1e" text-anchor="middle" style="white-space: pre;" direction="ltr" dominant-baseline="alphabetic">이렇게 보여질 것 같지만</text></g><g transform="translate(966.8204752604166 441.49982452392567) rotate(0 356.9975280761719 84.30806746093367)"><text x="356.9975280761719" y="39.388729117748206" font-family="Virgil, Segoe UI Emoji" font-size="44.96430264583129px" fill="#1e1e1e" text-anchor="middle" style="white-space: pre;" direction="ltr" dominant-baseline="alphabetic">부모 z-index가 1이므로</text><text x="356.9975280761719" y="95.59410742503732" font-family="Virgil, Segoe UI Emoji" font-size="44.96430264583129px" fill="#1e1e1e" text-anchor="middle" style="white-space: pre;" direction="ltr" dominant-baseline="alphabetic">부모 바깥 다른 요소와 비교 불가하여</text><text x="356.9975280761719" y="151.79948573232642" font-family="Virgil, Segoe UI Emoji" font-size="44.96430264583129px" fill="#1e1e1e" text-anchor="middle" style="white-space: pre;" direction="ltr" dominant-baseline="alphabetic">이런 결과가 나와요.</text></g><g transform="translate(10 296.99997711181675) rotate(0 80.31769307454425 73.11994817597201)"><text x="80.31769307454425" y="102.48491936344234" font-family="Virgil, Segoe UI Emoji" font-size="116.9919170815552px" fill="#1e1e1e" text-anchor="middle" style="white-space: pre;" direction="ltr" dominant-baseline="alphabetic">❌</text></g><g transform="translate(873.668029785156 308.88007979847487) rotate(0 80.31637573242188 73.11994817597201)"><text x="80.31637573242188" y="102.48491936344234" font-family="Virgil, Segoe UI Emoji" font-size="116.9919170815552px" fill="#1e1e1e" text-anchor="middle" style="white-space: pre;" direction="ltr" dominant-baseline="alphabetic">⭕</text></g></svg>